<svg width="326" height="93" viewBox="0 0 326 93" fill="none" xmlns="http://www.w3.org/2000/svg">
<path d="M156.497 24.29V68H144.345V43.882L136.099 68H125.931L117.623 43.696V68H105.471V24.29H120.165L131.139 52.686L141.865 24.29H156.497ZM161.43 50.578C161.43 46.982 162.071 43.8407 163.352 41.154C164.675 38.4673 166.452 36.4007 168.684 34.954C170.958 33.5073 173.479 32.784 176.248 32.784C178.646 32.784 180.712 33.2593 182.448 34.21C184.184 35.1607 185.528 36.442 186.478 38.054V33.218H198.63V68H186.478V63.164C185.528 64.776 184.164 66.0573 182.386 67.008C180.65 67.9587 178.604 68.434 176.248 68.434C173.479 68.434 170.958 67.7107 168.684 66.264C166.452 64.8173 164.675 62.7507 163.352 60.064C162.071 57.336 161.43 54.174 161.43 50.578ZM186.478 50.578C186.478 48.346 185.858 46.5893 184.618 45.308C183.42 44.0267 181.932 43.386 180.154 43.386C178.336 43.386 176.827 44.0267 175.628 45.308C174.43 46.548 173.83 48.3047 173.83 50.578C173.83 52.81 174.43 54.5873 175.628 55.91C176.827 57.1913 178.336 57.832 180.154 57.832C181.932 57.832 183.42 57.1913 184.618 55.91C185.858 54.6287 186.478 52.8513 186.478 50.578ZM217.707 39.356C219.071 37.372 220.724 35.8013 222.667 34.644C224.61 33.4867 226.697 32.908 228.929 32.908V45.866H225.519C222.874 45.866 220.91 46.3827 219.629 47.416C218.348 48.4493 217.707 50.2473 217.707 52.81V68H205.555V33.218H217.707V39.356ZM239.423 29.994C237.274 29.994 235.538 29.4153 234.215 28.258C232.934 27.0593 232.293 25.5713 232.293 23.794C232.293 21.9753 232.934 20.4667 234.215 19.268C235.538 18.0693 237.274 17.47 239.423 17.47C241.531 17.47 243.226 18.0693 244.507 19.268C245.83 20.4667 246.491 21.9753 246.491 23.794C246.491 25.5713 245.83 27.0593 244.507 28.258C243.226 29.4153 241.531 29.994 239.423 29.994ZM245.437 33.218V68H233.285V33.218H245.437ZM250.374 50.578C250.374 46.982 251.118 43.8407 252.606 41.154C254.094 38.4673 256.16 36.4007 258.806 34.954C261.492 33.5073 264.551 32.784 267.982 32.784C272.404 32.784 276.124 34.0033 279.142 36.442C282.159 38.8393 284.102 42.208 284.97 46.548H272.074C271.33 44.2747 269.883 43.138 267.734 43.138C266.204 43.138 264.985 43.7787 264.076 45.06C263.208 46.3 262.774 48.1393 262.774 50.578C262.774 53.0167 263.208 54.8767 264.076 56.158C264.985 57.4393 266.204 58.08 267.734 58.08C269.924 58.08 271.371 56.9433 272.074 54.67H284.97C284.102 58.9687 282.159 62.3373 279.142 64.776C276.124 67.2147 272.404 68.434 267.982 68.434C264.551 68.434 261.492 67.7107 258.806 66.264C256.16 64.8173 254.094 62.7507 252.606 60.064C251.118 57.3773 250.374 54.2153 250.374 50.578ZM306.2 68.434C302.728 68.434 299.607 67.7107 296.838 66.264C294.11 64.8173 291.961 62.7507 290.39 60.064C288.819 57.3773 288.034 54.2153 288.034 50.578C288.034 46.982 288.819 43.8407 290.39 41.154C292.002 38.4673 294.172 36.4007 296.9 34.954C299.669 33.5073 302.79 32.784 306.262 32.784C309.734 32.784 312.834 33.5073 315.562 34.954C318.331 36.4007 320.501 38.4673 322.072 41.154C323.684 43.8407 324.49 46.982 324.49 50.578C324.49 54.174 323.684 57.336 322.072 60.064C320.501 62.7507 318.331 64.8173 315.562 66.264C312.793 67.7107 309.672 68.434 306.2 68.434ZM306.2 57.894C307.895 57.894 309.3 57.274 310.416 56.034C311.573 54.7527 312.152 52.934 312.152 50.578C312.152 48.222 311.573 46.424 310.416 45.184C309.3 43.944 307.915 43.324 306.262 43.324C304.609 43.324 303.224 43.944 302.108 45.184C300.992 46.424 300.434 48.222 300.434 50.578C300.434 52.9753 300.971 54.794 302.046 56.034C303.121 57.274 304.505 57.894 306.2 57.894Z" fill="white"/>
<path fill-rule="evenodd" clip-rule="evenodd" d="M0 44.203V76.049H27.82L27.814 71.544L0 44.203Z" fill="#326CF9"/>
<path fill-rule="evenodd" clip-rule="evenodd" d="M48.5991 76.054H76.4211V44.207L48.6061 71.549L48.5991 76.054Z" fill="#326CF9"/>
<path fill-rule="evenodd" clip-rule="evenodd" d="M76.419 4.899L38.291 42.379L0 4.73901V37.126L38.291 74.766L76.413 37.291L76.419 4.899Z" fill="#326CF9"/>
</svg>
