<svg width="223" height="64" viewBox="0 0 223 64" fill="none" xmlns="http://www.w3.org/2000/svg">
<path d="M107.918 17.3905V47.0005H99.686V30.6625L94.1 47.0005H87.212L81.584 30.5365V47.0005H73.352V17.3905H83.306L90.74 36.6265L98.006 17.3905H107.918ZM111.26 35.1985C111.26 32.7625 111.694 30.6345 112.562 28.8145C113.458 26.9945 114.662 25.5945 116.174 24.6145C117.714 23.6345 119.422 23.1445 121.298 23.1445C122.922 23.1445 124.322 23.4665 125.498 24.1105C126.674 24.7545 127.584 25.6225 128.228 26.7145V23.4385H136.46V47.0005H128.228V43.7245C127.584 44.8165 126.66 45.6845 125.456 46.3285C124.28 46.9725 122.894 47.2945 121.298 47.2945C119.422 47.2945 117.714 46.8045 116.174 45.8245C114.662 44.8445 113.458 43.4445 112.562 41.6245C111.694 39.7765 111.26 37.6345 111.26 35.1985ZM128.228 35.1985C128.228 33.6865 127.808 32.4965 126.968 31.6285C126.156 30.7605 125.148 30.3265 123.944 30.3265C122.712 30.3265 121.69 30.7605 120.878 31.6285C120.066 32.4685 119.66 33.6585 119.66 35.1985C119.66 36.7105 120.066 37.9145 120.878 38.8105C121.69 39.6785 122.712 40.1125 123.944 40.1125C125.148 40.1125 126.156 39.6785 126.968 38.8105C127.808 37.9425 128.228 36.7385 128.228 35.1985ZM149.383 27.5965C150.307 26.2525 151.427 25.1885 152.743 24.4045C154.059 23.6205 155.473 23.2285 156.985 23.2285V32.0065H154.675C152.883 32.0065 151.553 32.3565 150.685 33.0565C149.817 33.7565 149.383 34.9745 149.383 36.7105V47.0005H141.151V23.4385H149.383V27.5965ZM164.094 21.2545C162.638 21.2545 161.462 20.8625 160.566 20.0785C159.698 19.2665 159.264 18.2585 159.264 17.0545C159.264 15.8225 159.698 14.8005 160.566 13.9885C161.462 13.1765 162.638 12.7705 164.094 12.7705C165.522 12.7705 166.67 13.1765 167.538 13.9885C168.434 14.8005 168.882 15.8225 168.882 17.0545C168.882 18.2585 168.434 19.2665 167.538 20.0785C166.67 20.8625 165.522 21.2545 164.094 21.2545ZM168.168 23.4385V47.0005H159.936V23.4385H168.168ZM171.512 35.1985C171.512 32.7625 172.016 30.6345 173.024 28.8145C174.032 26.9945 175.432 25.5945 177.224 24.6145C179.044 23.6345 181.116 23.1445 183.44 23.1445C186.436 23.1445 188.956 23.9705 191 25.6225C193.044 27.2465 194.36 29.5285 194.948 32.4685H186.212C185.708 30.9285 184.728 30.1585 183.272 30.1585C182.236 30.1585 181.41 30.5925 180.794 31.4605C180.206 32.3005 179.912 33.5465 179.912 35.1985C179.912 36.8505 180.206 38.1105 180.794 38.9785C181.41 39.8465 182.236 40.2805 183.272 40.2805C184.756 40.2805 185.736 39.5105 186.212 37.9705H194.948C194.36 40.8825 193.044 43.1645 191 44.8165C188.956 46.4685 186.436 47.2945 183.44 47.2945C181.116 47.2945 179.044 46.8045 177.224 45.8245C175.432 44.8445 174.032 43.4445 173.024 41.6245C172.016 39.8045 171.512 37.6625 171.512 35.1985ZM209.33 47.2945C206.978 47.2945 204.864 46.8045 202.988 45.8245C201.14 44.8445 199.684 43.4445 198.62 41.6245C197.556 39.8045 197.024 37.6625 197.024 35.1985C197.024 32.7625 197.556 30.6345 198.62 28.8145C199.712 26.9945 201.182 25.5945 203.03 24.6145C204.906 23.6345 207.02 23.1445 209.372 23.1445C211.724 23.1445 213.824 23.6345 215.672 24.6145C217.548 25.5945 219.018 26.9945 220.082 28.8145C221.174 30.6345 221.72 32.7625 221.72 35.1985C221.72 37.6345 221.174 39.7765 220.082 41.6245C219.018 43.4445 217.548 44.8445 215.672 45.8245C213.796 46.8045 211.682 47.2945 209.33 47.2945ZM209.33 40.1545C210.478 40.1545 211.43 39.7345 212.186 38.8945C212.97 38.0265 213.362 36.7945 213.362 35.1985C213.362 33.6025 212.97 32.3845 212.186 31.5445C211.43 30.7045 210.492 30.2845 209.372 30.2845C208.252 30.2845 207.314 30.7045 206.558 31.5445C205.802 32.3845 205.424 33.6025 205.424 35.1985C205.424 36.8225 205.788 38.0545 206.516 38.8945C207.244 39.7345 208.182 40.1545 209.33 40.1545Z" fill="white"/>
<path fill-rule="evenodd" clip-rule="evenodd" d="M0 39.4995V52.5371H11.292V50.6924L0 39.4995Z" fill="#326CF9"/>
<path fill-rule="evenodd" clip-rule="evenodd" d="M35.884 52.5396H47.176V39.5015L35.887 50.6953L35.884 52.5396Z" fill="#326CF9"/>
<path fill-rule="evenodd" clip-rule="evenodd" d="M47.176 0.274414L23.638 28.0273L0 0.15625V24.1392L23.638 52.0122L47.172 24.2622L47.176 0.274414Z" fill="#326CF9"/>
</svg>
