<svg width="788" height="338" viewBox="0 0 788 338" fill="none" xmlns="http://www.w3.org/2000/svg">
<path fill-rule="evenodd" clip-rule="evenodd" d="M787 338H1.52588e-05V174C-0.00405884 162.242 1.17891 150.494 3.53098 138.953C8.08768 116.689 16.9854 95.5405 29.716 76.7153C48.6017 48.7412 75.1937 26.8433 106.271 13.6743C116.797 9.2251 127.738 5.82886 138.933 3.53516C150.474 1.18188 162.222 -0.00244141 174 0.000244141H787V338Z" fill="#AFAAC1"/>
<path fill-rule="evenodd" clip-rule="evenodd" d="M788 338H16V174C15.9947 163.211 17.0812 152.407 19.2429 141.795C23.4321 121.314 31.6156 101.86 43.326 84.5432C60.6927 58.8186 85.147 38.6824 113.726 26.5742C123.405 22.4832 133.465 19.3601 143.759 17.2512C154.37 15.0876 165.171 13.9983 176 14.0002H788V338Z" fill="black"/>
<path fill-rule="evenodd" clip-rule="evenodd" d="M787 338H77V168C76.9697 148.873 82.6825 130.175 93.3987 114.328C103.817 98.8936 118.487 86.811 135.632 79.5442C147.454 74.541 160.163 71.9753 173 72.0002H787V338Z" fill="#1E1E1E"/>
<path fill-rule="evenodd" clip-rule="evenodd" d="M767.8 133H334C306.386 133 284 110.615 284 83.0002C284 55.386 306.386 33.0002 334 33.0002H767.8C774.39 32.9885 780.917 34.2874 787 36.8213V129.179C780.917 131.713 774.39 133.012 767.8 133H767.8Z" fill="black"/>
<path fill-rule="evenodd" clip-rule="evenodd" d="M496 86.0002C496 83.515 496.879 81.3936 498.636 79.6363C500.393 77.8789 502.515 77.0002 505 77.0002H602C604.485 77.0002 606.607 77.8789 608.364 79.6363C610.121 81.3936 611 83.515 611 86.0002C611 88.4855 610.121 90.6068 608.364 92.3642C606.607 94.1216 604.485 95.0002 602 95.0002H505C502.515 95.0002 500.393 94.1216 498.636 92.3642C496.879 90.6068 496 88.4855 496 86.0002Z" fill="#2B2B29"/>
<circle cx="657" cy="86.0002" r="17" fill="#171717"/>
<circle cx="657" cy="86.0002" r="16" stroke="#2B2B29" stroke-width="2"/>
<circle cx="657" cy="86.0002" r="6" fill="#232A5E"/>
<path fill-rule="evenodd" clip-rule="evenodd" d="M781 303H125C116.163 303 109 295.837 109 287V245C109 236.164 116.163 229 125 229H781C783.426 228.993 785.82 229.543 788 230.608V301.391C785.821 302.456 783.426 303.007 781 303Z" fill="#323234"/>
<path d="M445.169 276.155L450.928 259.509H453.133L445.306 280.974C445.146 281.395 444.941 281.863 444.69 282.375C444.451 282.888 444.132 283.378 443.733 283.845C443.346 284.323 442.856 284.711 442.264 285.007C441.683 285.315 440.971 285.469 440.127 285.469C439.911 285.469 439.632 285.44 439.29 285.383C438.96 285.337 438.72 285.292 438.572 285.246L438.555 283.52C438.681 283.554 438.863 283.583 439.102 283.606C439.341 283.628 439.507 283.64 439.598 283.64C440.338 283.64 440.959 283.515 441.46 283.264C441.973 283.013 442.4 282.637 442.742 282.136C443.084 281.646 443.386 281.031 443.648 280.29L445.169 276.155ZM439.786 259.509L445.682 275.385L446.229 277.522L444.742 278.359L437.564 259.509H439.786ZM454.927 269.045V268.481C454.927 267.137 455.121 265.895 455.508 264.756C455.896 263.616 456.448 262.631 457.166 261.799C457.895 260.967 458.767 260.324 459.781 259.868C460.795 259.401 461.923 259.167 463.165 259.167C464.418 259.167 465.551 259.401 466.565 259.868C467.579 260.324 468.451 260.967 469.18 261.799C469.909 262.631 470.468 263.616 470.855 264.756C471.242 265.895 471.436 267.137 471.436 268.481V269.045C471.436 270.39 471.242 271.631 470.855 272.771C470.468 273.899 469.909 274.878 469.18 275.71C468.462 276.542 467.597 277.191 466.583 277.658C465.569 278.114 464.441 278.342 463.199 278.342C461.945 278.342 460.812 278.114 459.798 277.658C458.784 277.191 457.912 276.542 457.183 275.71C456.454 274.878 455.896 273.899 455.508 272.771C455.121 271.631 454.927 270.39 454.927 269.045ZM456.961 268.481V269.045C456.961 270.059 457.098 271.022 457.371 271.933C457.645 272.833 458.043 273.637 458.567 274.343C459.091 275.038 459.741 275.585 460.516 275.984C461.29 276.382 462.185 276.582 463.199 276.582C464.201 276.582 465.084 276.382 465.848 275.984C466.622 275.585 467.272 275.038 467.796 274.343C468.32 273.637 468.713 272.833 468.975 271.933C469.249 271.022 469.385 270.059 469.385 269.045V268.481C469.385 267.479 469.249 266.527 468.975 265.627C468.713 264.727 468.314 263.924 467.779 263.218C467.255 262.511 466.605 261.953 465.831 261.543C465.056 261.133 464.167 260.927 463.165 260.927C462.162 260.927 461.273 261.133 460.499 261.543C459.735 261.953 459.086 262.511 458.55 263.218C458.026 263.924 457.627 264.727 457.354 265.627C457.092 266.527 456.961 267.479 456.961 268.481ZM487.518 273.728V259.509H489.568V278H487.603L487.518 273.728ZM487.894 270.31L488.953 270.276C488.953 271.438 488.816 272.509 488.543 273.489C488.27 274.468 487.842 275.323 487.261 276.052C486.68 276.781 485.928 277.345 485.005 277.744C484.083 278.143 482.972 278.342 481.673 278.342C480.773 278.342 479.947 278.217 479.195 277.966C478.454 277.704 477.816 277.294 477.281 276.736C476.745 276.177 476.329 275.454 476.033 274.565C475.748 273.677 475.606 272.6 475.606 271.335V259.509H477.64V271.369C477.64 272.361 477.748 273.187 477.964 273.847C478.192 274.508 478.5 275.038 478.887 275.437C479.286 275.836 479.742 276.12 480.254 276.291C480.767 276.462 481.32 276.548 481.912 276.548C483.416 276.548 484.601 276.257 485.467 275.676C486.344 275.095 486.965 274.332 487.33 273.386C487.706 272.429 487.894 271.404 487.894 270.31ZM496.951 262.568V278H494.917V259.509H496.9L496.951 262.568ZM503.497 259.372L503.445 261.252C503.217 261.218 502.995 261.19 502.779 261.167C502.562 261.144 502.329 261.133 502.078 261.133C501.189 261.133 500.409 261.298 499.737 261.628C499.076 261.947 498.518 262.397 498.062 262.978C497.606 263.548 497.259 264.22 497.02 264.995C496.78 265.758 496.644 266.579 496.609 267.456L495.857 267.746C495.857 266.539 495.983 265.416 496.233 264.38C496.484 263.343 496.866 262.437 497.378 261.662C497.903 260.876 498.558 260.267 499.344 259.834C500.141 259.389 501.076 259.167 502.146 259.167C502.409 259.167 502.665 259.19 502.916 259.236C503.178 259.27 503.371 259.315 503.497 259.372ZM508.743 263.457V278H506.709V259.509H508.658L508.743 263.457ZM508.282 267.61L507.376 267.097C507.444 266.003 507.667 264.978 508.042 264.021C508.418 263.064 508.925 262.221 509.563 261.491C510.213 260.762 510.971 260.193 511.836 259.782C512.714 259.372 513.682 259.167 514.742 259.167C515.665 259.167 516.491 259.293 517.22 259.543C517.949 259.794 518.57 260.193 519.083 260.74C519.595 261.286 519.983 261.987 520.245 262.842C520.518 263.696 520.655 264.739 520.655 265.969V278H518.604V265.952C518.604 264.676 518.427 263.679 518.074 262.961C517.721 262.232 517.22 261.714 516.57 261.406C515.921 261.098 515.152 260.945 514.263 260.945C513.283 260.945 512.423 261.161 511.683 261.594C510.953 262.016 510.338 262.568 509.837 263.252C509.347 263.924 508.971 264.647 508.709 265.422C508.447 266.185 508.305 266.915 508.282 267.61ZM537.198 274.685V265.149C537.198 264.271 537.015 263.514 536.651 262.876C536.286 262.238 535.751 261.748 535.044 261.406C534.338 261.064 533.466 260.893 532.43 260.893C531.473 260.893 530.618 261.064 529.866 261.406C529.126 261.736 528.539 262.186 528.106 262.756C527.684 263.314 527.474 263.935 527.474 264.619L525.423 264.602C525.423 263.907 525.594 263.235 525.936 262.585C526.277 261.936 526.762 261.355 527.388 260.842C528.015 260.329 528.761 259.925 529.627 259.629C530.504 259.321 531.467 259.167 532.515 259.167C533.837 259.167 534.999 259.389 536.001 259.834C537.015 260.278 537.807 260.945 538.377 261.833C538.947 262.722 539.231 263.838 539.231 265.183V274.121C539.231 274.759 539.277 275.42 539.368 276.103C539.471 276.787 539.613 277.351 539.795 277.795V278H537.625C537.488 277.59 537.38 277.077 537.3 276.462C537.232 275.836 537.198 275.243 537.198 274.685ZM537.676 267.234L537.71 268.806H533.694C532.646 268.806 531.706 268.903 530.875 269.096C530.054 269.279 529.359 269.552 528.79 269.917C528.22 270.27 527.781 270.697 527.474 271.198C527.177 271.7 527.029 272.269 527.029 272.907C527.029 273.568 527.194 274.172 527.525 274.719C527.867 275.266 528.345 275.705 528.96 276.035C529.587 276.354 530.328 276.513 531.182 276.513C532.321 276.513 533.324 276.303 534.19 275.881C535.067 275.46 535.791 274.907 536.36 274.223C536.93 273.54 537.312 272.794 537.505 271.985L538.394 273.164C538.246 273.733 537.972 274.32 537.574 274.924C537.186 275.517 536.679 276.075 536.053 276.599C535.426 277.112 534.686 277.533 533.831 277.864C532.988 278.183 532.031 278.342 530.96 278.342C529.752 278.342 528.698 278.114 527.798 277.658C526.91 277.203 526.215 276.582 525.713 275.796C525.223 274.998 524.979 274.098 524.979 273.095C524.979 272.184 525.172 271.369 525.56 270.652C525.947 269.922 526.505 269.307 527.234 268.806C527.975 268.293 528.864 267.906 529.9 267.644C530.949 267.37 532.122 267.234 533.421 267.234H537.676ZM546.648 263.337V278H544.598V259.509H546.563L546.648 263.337ZM546.272 267.61L545.281 267.097C545.35 266.003 545.555 264.978 545.896 264.021C546.25 263.064 546.74 262.221 547.366 261.491C547.993 260.762 548.745 260.193 549.622 259.782C550.499 259.372 551.496 259.167 552.613 259.167C553.513 259.167 554.327 259.293 555.057 259.543C555.797 259.782 556.424 260.164 556.937 260.688C557.461 261.201 557.865 261.873 558.15 262.705C558.435 263.537 558.577 264.533 558.577 265.696V278H556.543V265.764C556.543 264.533 556.35 263.571 555.962 262.876C555.586 262.181 555.057 261.685 554.373 261.389C553.701 261.093 552.92 260.945 552.032 260.945C550.984 260.945 550.095 261.161 549.366 261.594C548.648 262.016 548.061 262.568 547.605 263.252C547.161 263.924 546.831 264.647 546.614 265.422C546.398 266.185 546.284 266.915 546.272 267.61ZM558.56 266.003L557.193 266.037C557.25 265.137 557.455 264.277 557.808 263.457C558.173 262.636 558.668 261.907 559.295 261.269C559.922 260.62 560.668 260.107 561.534 259.731C562.411 259.355 563.396 259.167 564.49 259.167C565.447 259.167 566.302 259.298 567.054 259.56C567.806 259.811 568.438 260.215 568.951 260.774C569.475 261.321 569.874 262.021 570.147 262.876C570.42 263.73 570.557 264.756 570.557 265.952V278H568.506V265.935C568.506 264.625 568.313 263.611 567.925 262.893C567.549 262.164 567.025 261.657 566.353 261.372C565.681 261.087 564.895 260.945 563.995 260.945C563.106 260.956 562.326 261.121 561.653 261.44C560.981 261.748 560.417 262.158 559.961 262.671C559.517 263.172 559.175 263.713 558.936 264.294C558.708 264.875 558.583 265.445 558.56 266.003ZM582.896 278.342C581.688 278.342 580.577 278.12 579.563 277.676C578.561 277.231 577.684 276.605 576.932 275.796C576.191 274.987 575.616 274.03 575.206 272.925C574.807 271.808 574.607 270.589 574.607 269.267V268.532C574.607 267.108 574.818 265.821 575.24 264.67C575.661 263.519 576.242 262.534 576.983 261.714C577.723 260.893 578.567 260.267 579.512 259.834C580.469 259.389 581.472 259.167 582.52 259.167C583.694 259.167 584.736 259.378 585.647 259.8C586.559 260.21 587.322 260.796 587.938 261.56C588.564 262.312 589.037 263.206 589.356 264.243C589.675 265.268 589.834 266.402 589.834 267.644V268.891H575.838V267.148H587.801V266.909C587.778 265.872 587.567 264.904 587.168 264.004C586.781 263.092 586.2 262.352 585.425 261.782C584.651 261.212 583.682 260.927 582.52 260.927C581.654 260.927 580.857 261.11 580.127 261.474C579.41 261.839 578.789 262.363 578.265 263.047C577.752 263.719 577.353 264.522 577.068 265.456C576.795 266.379 576.658 267.405 576.658 268.532V269.267C576.658 270.293 576.806 271.25 577.103 272.138C577.41 273.016 577.843 273.79 578.401 274.463C578.971 275.135 579.643 275.659 580.418 276.035C581.193 276.411 582.047 276.599 582.981 276.599C584.075 276.599 585.044 276.399 585.887 276.001C586.73 275.591 587.487 274.947 588.16 274.07L589.441 275.061C589.043 275.653 588.541 276.2 587.938 276.701C587.345 277.203 586.633 277.601 585.801 277.898C584.97 278.194 584.001 278.342 582.896 278.342ZM593.68 276.753C593.68 276.354 593.805 276.018 594.056 275.744C594.318 275.46 594.671 275.317 595.115 275.317C595.571 275.317 595.93 275.454 596.192 275.727C596.454 276.001 596.585 276.343 596.585 276.753C596.585 277.14 596.454 277.47 596.192 277.744C595.93 278.017 595.571 278.154 595.115 278.154C594.671 278.154 594.318 278.017 594.056 277.744C593.805 277.47 593.68 277.14 593.68 276.753ZM607.369 273.677L611.829 259.509H613.265L612.41 263.32L607.745 278H606.309L607.369 273.677ZM602.737 259.509L606.651 273.762L607.488 278H606.001L600.635 259.509H602.737ZM618.819 273.711L622.63 259.509H624.732L619.366 278H617.896L618.819 273.711ZM613.555 259.509L617.947 273.557L619.058 278H617.623L612.854 263.303L612.051 259.509H613.555ZM639.908 274.685V265.149C639.908 264.271 639.725 263.514 639.361 262.876C638.996 262.238 638.461 261.748 637.754 261.406C637.048 261.064 636.176 260.893 635.14 260.893C634.183 260.893 633.328 261.064 632.576 261.406C631.836 261.736 631.249 262.186 630.816 262.756C630.394 263.314 630.184 263.935 630.184 264.619L628.133 264.602C628.133 263.907 628.304 263.235 628.646 262.585C628.987 261.936 629.472 261.355 630.098 260.842C630.725 260.329 631.471 259.925 632.337 259.629C633.214 259.321 634.177 259.167 635.225 259.167C636.547 259.167 637.709 259.389 638.711 259.834C639.725 260.278 640.517 260.945 641.087 261.833C641.657 262.722 641.941 263.838 641.941 265.183V274.121C641.941 274.759 641.987 275.42 642.078 276.103C642.181 276.787 642.323 277.351 642.505 277.795V278H640.335C640.198 277.59 640.09 277.077 640.01 276.462C639.942 275.836 639.908 275.243 639.908 274.685ZM640.386 267.234L640.42 268.806H636.404C635.356 268.806 634.416 268.903 633.584 269.096C632.764 269.279 632.069 269.552 631.5 269.917C630.93 270.27 630.491 270.697 630.184 271.198C629.887 271.7 629.739 272.269 629.739 272.907C629.739 273.568 629.904 274.172 630.235 274.719C630.577 275.266 631.055 275.705 631.67 276.035C632.297 276.354 633.038 276.513 633.892 276.513C635.031 276.513 636.034 276.303 636.9 275.881C637.777 275.46 638.501 274.907 639.07 274.223C639.64 273.54 640.022 272.794 640.215 271.985L641.104 273.164C640.956 273.733 640.682 274.32 640.284 274.924C639.896 275.517 639.389 276.075 638.763 276.599C638.136 277.112 637.396 277.533 636.541 277.864C635.698 278.183 634.741 278.342 633.67 278.342C632.462 278.342 631.408 278.114 630.508 277.658C629.62 277.203 628.925 276.582 628.423 275.796C627.933 274.998 627.688 274.098 627.688 273.095C627.688 272.184 627.882 271.369 628.27 270.652C628.657 269.922 629.215 269.307 629.944 268.806C630.685 268.293 631.574 267.906 632.61 267.644C633.659 267.37 634.832 267.234 636.131 267.234H640.386ZM652.605 276.035L658.536 259.509H660.638L653.716 278H652.229L652.605 276.035ZM647.239 259.509L653.238 276.086L653.562 278H652.059L645.12 259.509H647.239ZM666.277 259.509V278H664.244V259.509H666.277ZM663.885 254.16C663.885 253.773 664.004 253.448 664.244 253.186C664.494 252.912 664.836 252.776 665.269 252.776C665.702 252.776 666.044 252.912 666.294 253.186C666.556 253.448 666.688 253.773 666.688 254.16C666.688 254.536 666.556 254.861 666.294 255.134C666.044 255.396 665.702 255.527 665.269 255.527C664.836 255.527 664.494 255.396 664.244 255.134C664.004 254.861 663.885 254.536 663.885 254.16ZM683.709 273.728V259.509H685.76V278H683.794L683.709 273.728ZM684.085 270.31L685.145 270.276C685.145 271.438 685.008 272.509 684.734 273.489C684.461 274.468 684.034 275.323 683.453 276.052C682.872 276.781 682.12 277.345 681.197 277.744C680.274 278.143 679.163 278.342 677.864 278.342C676.964 278.342 676.138 278.217 675.386 277.966C674.646 277.704 674.008 277.294 673.472 276.736C672.937 276.177 672.521 275.454 672.225 274.565C671.94 273.677 671.797 272.6 671.797 271.335V259.509H673.831V271.369C673.831 272.361 673.939 273.187 674.156 273.847C674.384 274.508 674.691 275.038 675.079 275.437C675.477 275.836 675.933 276.12 676.446 276.291C676.958 276.462 677.511 276.548 678.104 276.548C679.607 276.548 680.792 276.257 681.658 275.676C682.535 275.095 683.156 274.332 683.521 273.386C683.897 272.429 684.085 271.404 684.085 270.31ZM693.04 263.337V278H690.989V259.509H692.955L693.04 263.337ZM692.664 267.61L691.673 267.097C691.741 266.003 691.946 264.978 692.288 264.021C692.641 263.064 693.131 262.221 693.758 261.491C694.384 260.762 695.136 260.193 696.014 259.782C696.891 259.372 697.888 259.167 699.004 259.167C699.904 259.167 700.719 259.293 701.448 259.543C702.189 259.782 702.815 260.164 703.328 260.688C703.852 261.201 704.257 261.873 704.542 262.705C704.826 263.537 704.969 264.533 704.969 265.696V278H702.935V265.764C702.935 264.533 702.741 263.571 702.354 262.876C701.978 262.181 701.448 261.685 700.765 261.389C700.092 261.093 699.312 260.945 698.423 260.945C697.375 260.945 696.486 261.161 695.757 261.594C695.04 262.016 694.453 262.568 693.997 263.252C693.553 263.924 693.222 264.647 693.006 265.422C692.789 266.185 692.675 266.915 692.664 267.61ZM704.952 266.003L703.584 266.037C703.641 265.137 703.847 264.277 704.2 263.457C704.564 262.636 705.06 261.907 705.687 261.269C706.313 260.62 707.059 260.107 707.925 259.731C708.803 259.355 709.788 259.167 710.882 259.167C711.839 259.167 712.693 259.298 713.445 259.56C714.197 259.811 714.83 260.215 715.342 260.774C715.866 261.321 716.265 262.021 716.539 262.876C716.812 263.73 716.949 264.756 716.949 265.952V278H714.898V265.935C714.898 264.625 714.704 263.611 714.317 262.893C713.941 262.164 713.417 261.657 712.745 261.372C712.072 261.087 711.286 260.945 710.386 260.945C709.498 260.956 708.717 261.121 708.045 261.44C707.373 261.748 706.809 262.158 706.353 262.671C705.909 263.172 705.567 263.713 705.328 264.294C705.1 264.875 704.974 265.445 704.952 266.003ZM721.956 276.753C721.956 276.354 722.081 276.018 722.332 275.744C722.594 275.46 722.947 275.317 723.392 275.317C723.847 275.317 724.206 275.454 724.468 275.727C724.73 276.001 724.861 276.343 724.861 276.753C724.861 277.14 724.73 277.47 724.468 277.744C724.206 278.017 723.847 278.154 723.392 278.154C722.947 278.154 722.594 278.017 722.332 277.744C722.081 277.47 721.956 277.14 721.956 276.753ZM737.337 276.582C738.203 276.582 739.012 276.422 739.764 276.103C740.527 275.773 741.154 275.289 741.644 274.651C742.145 274.001 742.43 273.209 742.498 272.275H744.446C744.389 273.449 744.03 274.497 743.37 275.42C742.72 276.331 741.866 277.049 740.806 277.573C739.758 278.086 738.602 278.342 737.337 278.342C736.049 278.342 734.91 278.108 733.919 277.641C732.939 277.174 732.119 276.525 731.458 275.693C730.797 274.85 730.296 273.87 729.954 272.754C729.624 271.626 729.458 270.412 729.458 269.114V268.396C729.458 267.097 729.624 265.889 729.954 264.773C730.296 263.645 730.797 262.665 731.458 261.833C732.119 260.99 732.939 260.335 733.919 259.868C734.899 259.401 736.032 259.167 737.32 259.167C738.641 259.167 739.826 259.435 740.875 259.97C741.934 260.506 742.777 261.264 743.404 262.243C744.042 263.223 744.389 264.385 744.446 265.73H742.498C742.441 264.739 742.179 263.884 741.712 263.166C741.245 262.448 740.63 261.896 739.866 261.509C739.103 261.121 738.254 260.927 737.32 260.927C736.272 260.927 735.377 261.133 734.637 261.543C733.896 261.941 733.292 262.494 732.825 263.2C732.369 263.895 732.033 264.693 731.817 265.593C731.6 266.482 731.492 267.416 731.492 268.396V269.114C731.492 270.105 731.595 271.05 731.8 271.95C732.016 272.839 732.352 273.631 732.808 274.326C733.275 275.021 733.879 275.573 734.62 275.984C735.372 276.382 736.277 276.582 737.337 276.582ZM747.437 269.045V268.481C747.437 267.137 747.631 265.895 748.018 264.756C748.405 263.616 748.958 262.631 749.676 261.799C750.405 260.967 751.277 260.324 752.291 259.868C753.305 259.401 754.432 259.167 755.674 259.167C756.928 259.167 758.061 259.401 759.075 259.868C760.089 260.324 760.961 260.967 761.69 261.799C762.419 262.631 762.977 263.616 763.365 264.756C763.752 265.895 763.946 267.137 763.946 268.481V269.045C763.946 270.39 763.752 271.631 763.365 272.771C762.977 273.899 762.419 274.878 761.69 275.71C760.972 276.542 760.106 277.191 759.092 277.658C758.078 278.114 756.95 278.342 755.708 278.342C754.455 278.342 753.322 278.114 752.308 277.658C751.294 277.191 750.422 276.542 749.693 275.71C748.964 274.878 748.405 273.899 748.018 272.771C747.631 271.631 747.437 270.39 747.437 269.045ZM749.471 268.481V269.045C749.471 270.059 749.607 271.022 749.881 271.933C750.154 272.833 750.553 273.637 751.077 274.343C751.601 275.038 752.251 275.585 753.025 275.984C753.8 276.382 754.694 276.582 755.708 276.582C756.711 276.582 757.594 276.382 758.357 275.984C759.132 275.585 759.782 275.038 760.306 274.343C760.83 273.637 761.223 272.833 761.485 271.933C761.758 271.022 761.895 270.059 761.895 269.045V268.481C761.895 267.479 761.758 266.527 761.485 265.627C761.223 264.727 760.824 263.924 760.289 263.218C759.764 262.511 759.115 261.953 758.34 261.543C757.566 261.133 756.677 260.927 755.674 260.927C754.672 260.927 753.783 261.133 753.008 261.543C752.245 261.953 751.596 262.511 751.06 263.218C750.536 263.924 750.137 264.727 749.864 265.627C749.602 266.527 749.471 267.479 749.471 268.481Z" fill="#84E575"/>
<path d="M157.877 272.362H150.431L148.759 277H146.342L153.129 259.227H155.18L161.979 277H159.574L157.877 272.362ZM151.139 270.433H157.182L154.154 262.12L151.139 270.433ZM174.186 272.362H166.74L165.067 277H162.65L169.438 259.227H171.488L178.288 277H175.883L174.186 272.362ZM167.448 270.433H173.49L170.463 262.12L167.448 270.433Z" fill="white"/>
<path d="M197.353 133.475C196.249 134.559 194.96 135.101 193.485 135.101C191.601 135.101 190.092 134.456 188.959 133.167C187.826 131.868 187.26 130.12 187.26 127.923C187.26 126.527 187.562 125.247 188.168 124.085C188.783 122.913 189.638 122.005 190.731 121.361C191.825 120.706 193.056 120.379 194.423 120.379C195.829 120.379 197.079 120.731 198.173 121.434C199.267 122.137 200.116 123.148 200.722 124.466C201.327 125.784 201.635 127.293 201.645 128.992V130.56C201.645 134.115 200.761 136.907 198.993 138.939C197.226 140.97 194.721 142.054 191.479 142.191L190.438 142.205V138.675L191.376 138.66C195.058 138.494 197.05 136.766 197.353 133.475ZM194.525 131.864C195.209 131.864 195.795 131.688 196.283 131.336C196.781 130.985 197.157 130.56 197.411 130.062V128.319C197.411 126.883 197.138 125.77 196.591 124.979C196.044 124.188 195.312 123.792 194.394 123.792C193.544 123.792 192.846 124.183 192.299 124.964C191.752 125.736 191.479 126.707 191.479 127.879C191.479 129.041 191.742 129.998 192.27 130.75C192.807 131.492 193.559 131.864 194.525 131.864ZM205.058 139.92C205.058 139.246 205.282 138.699 205.731 138.28C206.19 137.86 206.762 137.65 207.445 137.65C208.139 137.65 208.71 137.86 209.159 138.28C209.618 138.699 209.848 139.246 209.848 139.92C209.848 140.584 209.623 141.126 209.174 141.546C208.725 141.956 208.148 142.161 207.445 142.161C206.752 142.161 206.181 141.956 205.731 141.546C205.282 141.126 205.058 140.584 205.058 139.92ZM205.058 127.923C205.058 127.249 205.282 126.702 205.731 126.282C206.19 125.863 206.762 125.653 207.445 125.653C208.139 125.653 208.71 125.863 209.159 126.282C209.618 126.702 209.848 127.249 209.848 127.923C209.848 128.587 209.623 129.129 209.174 129.549C208.725 129.959 208.148 130.164 207.445 130.164C206.752 130.164 206.181 129.959 205.731 129.549C205.282 129.129 205.058 128.587 205.058 127.923ZM225.668 133.973H228.085V137.386H225.668V142H221.435V137.386H212.689L212.499 134.72L221.391 120.672H225.668V133.973ZM216.718 133.973H221.435V126.444L221.156 126.927L216.718 133.973ZM240.653 142H236.42V125.682L231.366 127.249V123.807L240.199 120.643H240.653V142Z" fill="white"/>
<path fill-rule="evenodd" clip-rule="evenodd" d="M416.559 262.829V260.029C416.56 257.328 415.12 254.832 412.781 253.482C410.442 252.131 407.56 252.131 405.222 253.482C402.883 254.833 401.443 257.329 401.444 260.03V262.829H398.959V269.488C398.959 275.034 403.454 279.529 409 279.529C414.545 279.529 419.041 275.034 419.041 269.488V262.829H416.559ZM409.794 272.229V274.701H408.207V272.231C406.811 271.836 405.92 270.471 406.12 269.034C406.32 267.597 407.549 266.527 409 266.527C410.45 266.527 411.679 267.597 411.879 269.034C412.078 270.471 411.188 271.836 409.792 272.231L409.794 272.229ZM414.973 262.829H403.028V260.029C403.028 256.731 405.702 254.057 409 254.057C412.298 254.057 414.972 256.731 414.972 260.029L414.973 262.829Z" fill="#80E770"/>
</svg>
